<svg xmlns="http://www.w3.org/2000/svg" viewBox="0 0 64 64" role="img" aria-label="AI Portfolio Icon">
  <defs>
    <linearGradient id="g" x1="0" y1="0" x2="1" y2="1">
      <stop offset="0%" stop-color="#6a11cb"/>
      <stop offset="100%" stop-color="#2575fc"/>
    </linearGradient>
    <filter id="shadow" x="-50%" y="-50%" width="200%" height="200%">
      <feDropShadow dx="0" dy="1" stdDeviation="1.5" flood-color="#000" flood-opacity="0.25"/>
    </filter>
  </defs>
  <!-- Rounded gradient tile -->
  <rect x="4" y="4" width="56" height="56" rx="12" fill="url(#g)"/>

  <!-- Briefcase to symbolize portfolio -->
  <g transform="translate(16,20)" fill="#ffffff" filter="url(#shadow)">
    <rect x="0" y="12" width="32" height="16" rx="3" opacity="0.95"/>
    <rect x="4" y="8" width="24" height="6" rx="2" opacity="1"/>
    <rect x="12" y="2" width="8" height="6" rx="2" opacity="1"/>
  </g>

  <!-- Monogram AI -->
  <g fill="#ffffff" opacity="0.95">
    <path d="M20 46 l4-12 h4 l4 12 h-3 l-1-3 h-4 l-1 3 h-3 m5-6 h2 l-1-3 -1 3z"/>
    <path d="M36 34 h3 v12 h-3 v-12 m0-3 h3 v2 h-3 v-2z"/>
  </g>
</svg>